HIERARCHY
ROOT Hips
{
	OFFSET 0.000000 0.000000 0.000000
	CHANNELS 6 Xposition Yposition Zposition Zrotation Yrotation Xrotation 
	JOINT LHipJoint
	{
		OFFSET 0.000000 0.000000 0.000000
		CHANNELS 3 Zrotation Yrotation Xrotation
		JOINT LeftUpLeg
		{
			OFFSET 1.363060 -1.794630 0.839290
			CHANNELS 3 Zrotation Yrotation Xrotation
			JOINT LeftLeg
			{
				OFFSET 2.448110 -6.726130 0.000000
				CHANNELS 3 Zrotation Yrotation Xrotation
				JOINT LeftFoot
				{
					OFFSET 2.562200 -7.039590 0.000000
					CHANNELS 3 Zrotation Yrotation Xrotation
					JOINT LeftToeBase
					{
						OFFSET 0.157640 -0.433110 2.322550
						CHANNELS 3 Zrotation Yrotation Xrotation
						End Site
						{
							OFFSET 0.000000 0.000000 0.000000
						}
					}
				}
			}
		}
	}
	JOINT RHipJoint
	{
		OFFSET 0.000000 0.000000 0.000000
		CHANNELS 3 Zrotation Yrotation Xrotation
		JOINT RightUpLeg
		{
			OFFSET -1.305520 -1.794630 0.839290
			CHANNELS 3 Zrotation Yrotation Xrotation
			JOINT RightLeg
			{
				OFFSET -2.542530 -6.985550 0.000000
				CHANNELS 3 Zrotation Yrotation Xrotation
				JOINT RightFoot
				{
					OFFSET -2.568260 -7.056230 0.000000
					CHANNELS 3 Zrotation Yrotation Xrotation
					JOINT RightToeBase
					{
						OFFSET -0.164730 -0.452590 2.363150
						CHANNELS 3 Zrotation Yrotation Xrotation
						End Site
						{
							OFFSET 0.000000 0.000000 0.000000
						}
					}
				}
			}
		}
	}
}
MOTION
Frames: 16
Frame Time: 0.008333
3.436972 16.005370 0.990266 13.398699 -88.416965 25.751453 -9.063080 -0.833231 -1.993208 -17.707245 3.898222 -70.243326 -2.887857 4.328228 48.297810 2.710178 9.262938 -16.586370 -1.146600 -0.000001 -38.761200 8.186662 2.462432 -2.443863 11.858606 -9.872722 -68.977266 3.185801 -5.231261 47.623404 -1.165957 -2.094575 -11.607530 -0.019401 -0.000000 -69.055901
3.441464 16.008951 0.988454 13.601879 -87.612740 25.342914 -9.077374 -0.869252 -1.944471 -17.542223 3.465692 -69.878681 -2.848189 4.259590 48.183613 2.667120 9.111547 -16.455969 -1.111600 -0.000000 -38.832900 8.186178 2.491505 -2.601446 11.800567 -10.403898 -68.651372 3.169186 -5.257847 47.769412 -1.254659 -2.480390 -11.804389 -0.002000 -0.000000 -69.009500
3.445380 16.014671 0.986525 13.726919 -86.781862 24.987876 -9.094528 -0.906471 -1.892410 -17.375506 3.030033 -69.464401 -2.808849 4.183729 48.030705 2.621405 8.954847 -16.305255 -1.073400 -0.000000 -38.915500 8.184976 2.515774 -2.762264 11.738503 -10.960855 -68.270549 3.155512 -5.279107 47.872618 -1.344506 -2.877659 -11.985830 0.016600 -0.000000 -68.971100
3.448292 16.022283 0.984256 13.858404 -85.924509 24.610952 -9.111624 -0.942677 -1.832478 -17.212343 2.580690 -69.010638 -2.769481 4.100085 47.839388 2.574689 8.798853 -16.133431 -1.032200 0.000001 -39.011100 8.186231 2.535202 -2.918626 11.663926 -11.533583 -67.851374 3.143230 -5.295925 47.938931 -1.436793 -3.291514 -12.152111 0.036000 -0.000000 -68.934100
3.450389 16.032030 0.981944 13.930601 -85.047570 24.268939 -9.131238 -0.978992 -1.767227 -17.046586 2.130945 -68.509154 -2.730126 4.009888 47.611189 2.526341 8.641486 -15.943100 -0.988700 -0.000000 -39.113100 8.187549 2.548625 -3.075328 11.587122 -12.126961 -67.377214 3.134102 -5.306756 47.960037 -1.529442 -3.713702 -12.301048 0.055800 0.000000 -68.900100
3.451501 16.043706 0.979458 13.991280 -84.152342 23.918665 -9.151298 -1.013880 -1.693384 -16.882455 1.673241 -67.967600 -2.690497 3.912871 47.346045 2.477744 8.487994 -15.733875 -0.943100 -0.000000 -39.224000 8.190983 2.556223 -3.226726 11.501537 -12.733492 -66.860987 3.126947 -5.312272 47.940573 -1.623086 -4.146540 -12.432545 0.075900 -0.000000 -68.863400
3.451514 16.057278 0.976846 14.041951 -83.242487 23.559798 -9.171734 -1.046668 -1.610285 -16.719974 1.208737 -67.386635 -2.650600 3.809481 47.044490 2.429312 8.340025 -15.506675 -0.896000 -0.000000 -39.343200 8.196810 2.557754 -3.372004 11.407926 -13.351955 -66.302807 3.122021 -5.312209 47.879429 -1.716950 -4.586592 -12.545790 0.095600 0.000000 -68.821400
3.450697 16.072925 0.974472 14.030543 -82.325268 23.235480 -9.194796 -1.078108 -1.520638 -16.551937 0.750663 -66.760642 -2.610509 3.701368 46.709210 2.380399 8.194796 -15.265433 -0.847900 -0.000001 -39.461200 8.202686 2.552587 -3.516373 11.317546 -13.986539 -65.688009 3.121006 -5.305004 47.769062 -1.808776 -5.024947 -12.638872 0.114700 0.000000 -68.776100
3.448797 16.090319 0.972054 14.022186 -81.399960 22.890754 -9.217391 -1.105970 -1.420629 -16.386748 0.285924 -66.098492 -2.570174 3.587766 46.338076 2.332614 8.058846 -15.007917 -0.798900 0.000000 -39.587499 8.211770 2.541847 -3.653023 11.218402 -14.630792 -65.035694 3.122319 -5.292188 47.617494 -1.899273 -5.463678 -12.712438 0.132700 -0.000000 -68.722100
3.446251 16.109659 0.969998 13.961253 -80.473629 22.570877 -9.241973 -1.131261 -1.313769 -16.215750 -0.170881 -65.395048 -2.529655 3.470690 45.934898 2.284965 7.927815 -14.738245 -0.749401 -0.000000 -39.713900 8.221287 2.525004 -3.788368 11.123656 -15.289191 -64.329945 3.127685 -5.272022 47.416665 -1.986073 -5.893724 -12.764228 0.148999 -0.000000 -68.663700
3.442971 16.130783 0.968251 13.868247 -79.548258 22.259861 -9.267633 -1.152912 -1.199397 -16.040859 -0.622171 -64.653524 -2.489071 3.350474 45.499867 2.237929 7.803471 -14.456631 -0.699700 0.000001 -39.840900 8.232196 2.502750 -3.921016 11.030280 -15.960410 -63.576538 3.136840 -5.244849 47.168435 -2.068640 -6.312622 -12.793748 0.163200 -0.000000 -68.601100
3.439115 16.153577 0.966905 13.740674 -78.627046 21.960012 -9.294348 -1.170677 -1.078250 -15.860850 -1.066014 -63.876076 -2.448448 3.228013 45.034719 2.191510 7.685601 -14.164016 -0.649800 -0.000000 -39.969400 8.244231 2.475457 -4.051979 10.940223 -16.644216 -62.776049 3.149925 -5.210510 46.872459 -2.146119 -6.716976 -12.799937 0.174600 0.000001 -68.536800
3.434858 16.177927 0.965963 13.581035 -77.712785 21.669580 -9.321890 -1.184211 -0.951044 -15.675585 -1.501165 -63.065334 -2.407871 3.104140 44.541324 2.145784 7.574274 -13.861316 -0.599900 -0.000000 -40.099000 8.257389 2.443627 -4.181711 10.853876 -17.339802 -61.930518 3.166835 -5.168989 46.529289 -2.217857 -7.104165 -12.781882 0.182800 -0.000000 -68.473500
3.430487 16.203753 0.965537 13.382167 -76.808679 21.394659 -9.350390 -1.193727 -0.818803 -15.482933 -1.924895 -62.225189 -2.367266 2.979924 44.022639 2.100610 7.468590 -13.549161 -0.550000 -0.000000 -40.231500 8.271134 2.407460 -4.311030 10.773475 -18.045350 -61.041393 3.187438 -5.120102 46.138956 -2.283380 -7.472526 -12.738227 0.187200 -0.000001 -68.414600
3.426098 16.230928 0.965788 13.128898 -75.919220 21.151798 -9.380988 -1.199618 -0.683336 -15.277430 -2.331006 -61.358694 -2.326578 2.856813 43.483521 2.055616 7.366190 -13.230163 -0.500500 0.000000 -40.363700 8.284224 2.366507 -4.441894 10.704917 -18.757878 -60.105964 3.211869 -5.062963 45.698849 -2.342195 -7.820677 -12.666813 0.187100 -0.000001 -68.363600
3.421433 16.259025 0.966174 12.887040 -75.043082 20.888384 -9.409341 -1.199693 -0.541335 -15.075608 -2.735994 -60.476700 -2.286383 2.733692 42.920547 2.012430 7.274480 -12.900006 -0.450600 0.000000 -40.503200 8.300745 2.323095 -4.565947 10.629590 -19.471351 -59.151793 3.237830 -5.000570 45.223237 -2.395617 -8.151807 -12.570681 0.182200 -0.000000 -68.319200
